<svg width="31" height="31" viewBox="0 0 31 31" fill="none" xmlns="http://www.w3.org/2000/svg">
<rect x="2" y="2" width="27" height="27" stroke="white" stroke-width="4"/>
<path d="M8.945 20V18.305H10.76V12.35H9.035V10.655H14.555V12.35H12.74V18.305H14.63V20H8.945ZM16.01 20V10.655H18.575C19.135 10.655 19.605 10.705 19.985 10.805C20.365 10.905 20.69 11.055 20.96 11.255C21.23 11.445 21.47 11.68 21.68 11.96C21.89 12.24 22.07 12.56 22.22 12.92C22.38 13.27 22.5 13.65 22.58 14.06C22.67 14.47 22.715 14.915 22.715 15.395C22.715 16.105 22.63 16.745 22.46 17.315C22.29 17.875 22.03 18.355 21.68 18.755C21.33 19.155 20.88 19.465 20.33 19.685C19.79 19.895 19.145 20 18.395 20H16.01ZM18.095 18.335H18.365C18.955 18.335 19.415 18.205 19.745 17.945C20.085 17.685 20.32 17.335 20.45 16.895C20.59 16.445 20.66 15.945 20.66 15.395C20.66 14.785 20.6 14.25 20.48 13.79C20.37 13.33 20.16 12.97 19.85 12.71C19.54 12.44 19.095 12.305 18.515 12.305H18.095V18.335Z" fill="white"/>
</svg>
